<svg width="244" height="314" viewBox="0 0 244 314" fill="none" xmlns="http://www.w3.org/2000/svg">
<path d="M179.5 284.577V298.077L182 299.172C190.782 296.866 199.343 293.682 207.607 289.577L194.5 284.577H179.5Z" fill="black"/>
<path d="M194.5 284.577V261.077L172.5 262.077L179.5 284.577H194.5Z" fill="#15918F"/>
<path d="M129.001 297.577L115.501 279.077L102.632 270.077C100.086 274.003 97.3238 277.925 95.0014 281.077C98.6014 281.077 110.168 292.744 115.501 298.577L129.001 297.577Z" fill="black"/>
<path d="M115.501 279.077L131.501 258.577L110.001 252.577C112.006 254.248 107.759 262.17 102.632 270.077L115.501 279.077Z" fill="#165C97"/>
<path d="M201 71.3268C201.833 75.3268 203.3 84.2771 202.5 87.0771L209.5 87.5771C209.593 85.2438 209.701 80.2771 209.389 79.0771C207.362 75.1454 203.807 73.3208 201 71.3268Z" fill="black"/>
<path d="M210 103.077L206 109.077C206.271 111.785 206.63 117.156 206.326 120.577L218 113.077L210 103.077Z" fill="black"/>
<path d="M77.0014 236.577C76.6014 242.577 98.8347 249.744 110.001 252.577L131.501 258.577C139.503 260.977 162.168 261.91 172.5 262.077L194.5 261.077C201.5 261.077 216.1 260.377 218.5 257.577L221 254.577L217 231.481C215.275 231.744 213.41 232.072 211.5 232.577C194.5 237.077 168.812 233.336 150 229.077L159 149.077L139.5 142.577L136.5 162.577H131L134.5 143.577L131.5 144.577L127 168.077L122.5 168.577L125.5 150.077L121 152.077L118.5 176.077L113 176.577L115.5 159.077L111 161.577L108 182.577L103 183.577L104 173.577L99 183.077L96 190.077L81 223.577C79.8338 225.41 77.4014 230.577 77.0014 236.577Z" fill="black"/>
<path d="M146 69.4774L141.111 67.5771L57.4934 35.0771C55.71 40.6118 54.1032 46.6965 52.6998 53.0771L133.688 78.0771L138.547 79.577L192 96.0771L197.721 90.0771L146 69.4774Z" fill="black"/>
<path d="M151 58.0771C149.8 60.8771 150.167 64.2438 150.5 65.5771C152.833 64.0771 158.2 60.9771 161 60.5771C163.8 60.1771 170.167 59.7438 173 59.5771L182 51.0771C180 49.2438 176.6 44.9771 179 42.5771C182 39.5771 186.5 38.0771 186.5 44.0771C186.5 50.0771 196.5 40.5771 206 39.5771C208.705 39.2924 171 29.5771 171 29.5771C167.8 30.7771 166.667 38.0771 166.5 41.5771C161 45.5771 152.5 54.5771 151 58.0771Z" fill="black"/>
<path d="M175 19.5769L218.5 33.0771C218.5 33.0771 218.442 29.129 218.36 24.5771L179 13.1208C177.484 15.4262 176.079 17.6893 175 19.5769Z" fill="black"/>
<path d="M201 3.57677C197.5 1.57715 192.5 -0.422211 189.5 0.0777053C188.031 0.322555 183.107 6.8768 179 13.1208L218.36 24.5771C218.252 18.5069 218.104 11.3629 218 11.0771C217.818 10.5771 218.247 9.90678 216.5 7.57715C215 5.57715 204.307 5.46585 201 3.57677Z" fill="#13A387"/>
<path d="M166.5 110.577L168.5 118.577L192 104.577C192.333 103.244 192.7 99.4771 191.5 99.0771C190.3 98.6771 174.667 106.577 166.5 110.577Z" fill="white"/>
<path d="M176.706 56.0771L173 59.5771L197.721 88.5771L199 90.0771L201 89.5771V87.5771L194 68.5771C189.5 67.5771 179.506 63.2771 176.706 56.0771Z" fill="white"/>
<path fill-rule="evenodd" clip-rule="evenodd" d="M233 37.0771L218.5 33.0771L175 19.5769C169 16.7769 162.5 17.4105 160.5 17.5771C158.9 22.3771 166.833 27.5771 171 29.5771C171 29.5771 208.705 39.2924 206 39.5771C196.5 40.5771 186.5 50.0771 186.5 44.0771C186.5 38.0771 182 39.5771 179 42.5771C176.6 44.9771 180 49.2438 182 51.0771L176.706 56.0771C179.506 63.2771 189.5 67.5771 194 68.5771L201 87.5771V89.5771L199 90.0771L197.721 88.5771L173 59.5771C170.167 59.7438 163.8 60.1771 161 60.5771C158.2 60.9771 152.833 64.0771 150.5 65.5771L146 69.4774L197.721 90.0771L192 96.0771L138.547 79.577L91 188.077L96 190.077L99 183.077L104 173.577L103 183.577L108 182.577L111 161.577L115.5 159.077L113 176.577L118.5 176.077L121 152.077L125.5 150.077L122.5 168.577L127 168.077L131.5 144.577L134.5 143.577L131 162.577H136.5L139.5 142.577L159 149.077L150 229.077C168.812 233.336 194.5 237.077 211.5 232.577C213.41 232.072 215.275 231.744 217 231.481C217.033 231.476 217.066 231.471 217.099 231.466C217.683 231.377 218.25 231.296 218.798 231.218C223.733 230.512 227.039 230.04 226 226.577C221.219 210.642 206.833 169.077 199 150.577L164.5 149.077C164.667 148.744 166.4 147.777 172 146.577C179 145.077 199 120.077 199.5 119.077C199.9 118.277 199.333 116.077 199 115.077L206 109.077L210 103.077L218 113.077L206.326 120.577C206.255 121.367 206.15 122.052 206 122.577C205.2 125.377 203.667 134.077 203 138.077C203.5 138.744 205.8 140.077 211 140.077C216.2 140.077 221.833 135.077 224 132.577C230 124.577 219.679 105.556 219 100.577C217.5 89.5771 211 92.0771 211 86.5771C211 83.4031 210.376 80.9906 209.389 79.0771C209.701 80.2771 209.593 85.2438 209.5 87.5771L202.5 87.0771C203.3 84.2771 201.833 75.3268 201 71.3268C200.995 71.3235 200.991 71.3203 200.986 71.3171C200.645 71.0744 200.315 70.8291 200 70.5771C196.5 68.0771 201 68.0771 201 68.0771C210.2 64.0771 214.167 48.7438 215 41.5771L220 43.0771C222.5 43.4105 227.5 44.1771 229.5 42.5771C231.5 40.9771 232.667 38.2438 233 37.0771ZM168.5 118.577L166.5 110.577C174.667 106.577 190.3 98.6771 191.5 99.0771C192.7 99.4771 192.333 103.244 192 104.577L168.5 118.577Z" fill="url(#paint0_linear_316_342)"/>
<path d="M0 241.577C0 241.577 50 297.077 93 306.077C125.129 312.802 146.5 316.702 177 309.077C205.278 302.008 244 278.577 244 278.577L228 277.077C221.449 281.928 214.635 286.086 207.607 289.577C199.343 293.682 190.782 296.866 182 299.172C123.578 314.516 55.3923 291.023 0 241.577Z" fill="url(#paint1_linear_316_342)"/>
<path d="M86 159.636C90.3192 160.939 94.3005 161.733 97.4986 162.077L99.8319 156.577L88.0751 152.909L86 159.636Z" fill="url(#paint2_linear_316_342)"/>
<path d="M52.8128 137.077C55.9684 141.579 60.0579 145.33 64.5 148.577L65.1206 143.412L53.3734 137.856L52.8128 137.077Z" fill="url(#paint3_linear_316_342)"/>
<path d="M52.8128 137.077L54.5 127.621L50.5 126.185L49.8034 131.93C50.6684 133.75 51.6805 135.462 52.8128 137.077Z" fill="url(#paint4_linear_316_342)"/>
<path d="M79 136.418L90.5 140.547L91.75 140.996L104.5 145.574L105.771 142.577L52 122.077L48.5 114.577L50.5 126.185L54.5 127.621L55.5 127.981L66.5 131.93L67.5 132.289L78 136.059L79 136.418Z" fill="black"/>
<path fill-rule="evenodd" clip-rule="evenodd" d="M66.5 131.93L55.5 127.981L53.7143 136.418L65.2208 142.577L66.5 131.93Z" fill="url(#paint5_linear_316_342)"/>
<path d="M53.3734 137.856L65.1206 143.412L65.2208 142.577L53.7143 136.418L53.3734 137.856Z" fill="white"/>
<path d="M54.5 127.621L52.8128 137.077L53.3734 137.856L53.7143 136.418L55.5 127.981L54.5 127.621Z" fill="white"/>
<path d="M75.5 147.428L78 136.059L67.5 132.289L66 142.945L75.5 147.428Z" fill="url(#paint6_linear_316_342)"/>
<path d="M74.366 155.077L75.5 148.753L66 143.864L65.5482 149.343C68.4121 151.433 71.3261 153.511 74.366 155.077Z" fill="url(#paint7_linear_316_342)"/>
<path d="M75.5 155.634L76.6458 149.343L86.764 152.5L85 159.327C85.3352 159.433 85.6686 159.536 86 159.636L88.0751 152.909L99.8319 156.577L100.468 155.077L88.5098 151.5L91.75 140.996L90.5 140.547L87.2328 151L76.8764 148.077L79 136.418L78 136.059L75.5 147.428L66 142.945L67.5 132.289L66.5 131.93L65.2208 142.577L65.1206 143.412L64.5 148.577L64.794 148.792C65.0451 148.976 65.2964 149.159 65.5482 149.343L66 143.864L75.5 148.753L74.366 155.077C74.7421 155.271 75.12 155.457 75.5 155.634Z" fill="white"/>
<path d="M79 136.418L76.8764 148.077L87.2328 151L90.5 140.547L79 136.418Z" fill="url(#paint8_linear_316_342)"/>
<path d="M104.5 145.574L91.75 140.996L88.5098 151.5L100.468 155.077L104.5 145.574Z" fill="url(#paint9_linear_316_342)"/>
<path d="M76.6458 149.343L75.5 155.634C78.7137 157.133 81.9318 158.357 85 159.327L86.764 152.5L76.6458 149.343Z" fill="url(#paint10_linear_316_342)"/>
<path fill-rule="evenodd" clip-rule="evenodd" d="M48.5 114.577L52 122.077L105.771 142.577L113.987 123.211C112.832 123.257 68.982 105.274 46.7185 96.0771C46.5194 99.3179 46.3858 102.495 46.3211 105.577L54.5 103.577L64.5 108.577L48.5 114.577ZM70.5 124.077L59.5 118.577L74.5 112.077L86 117.077L70.5 124.077ZM91.75 131.93L81 127.621L96 119.577L107 124.077L91.75 131.93Z" fill="url(#paint11_linear_316_342)"/>
<path d="M46.7185 96.0771C68.982 105.274 112.832 123.257 113.987 123.211L114 123.181L115 120.824L46.8545 94C46.8062 94.6951 46.7609 95.3875 46.7185 96.0771Z" fill="white"/>
<path d="M46.8545 94L115 120.824L115.953 118.577L47.0798 91C46.9987 92.0047 46.9236 93.005 46.8545 94Z" fill="black"/>
<path fill-rule="evenodd" clip-rule="evenodd" d="M47.0798 91L115.953 118.577L118.107 113.5L104.5 108.577L123.198 101.5L124.226 99.0771C112.006 98.3388 69.0541 81.3847 49.1053 73C48.8621 74.6912 48.6334 76.3849 48.4198 78.0771L62.5 84.5L50.5 90L47.2929 88.5C47.2178 89.336 47.1468 90.1695 47.0798 91ZM95 105.577L82.5 102L95 96.0771L107 99.0771L95 105.577ZM73 98.5L60 92.5L73 88.5L85 92.5L73 98.5Z" fill="#1E9479"/>
<path d="M59.5 118.577L70.5 124.077L86 117.077L74.5 112.077L59.5 118.577Z" fill="white"/>
<path d="M81 127.621L91.75 131.93L107 124.077L96 119.577L81 127.621Z" fill="white"/>
<path d="M46.5 118.577C46.6226 120.845 46.9347 123.01 47.4136 125.077L50.5 126.185L48.5 114.577L64.5 108.577L54.5 103.577L46.3211 105.577C46.2249 110.156 46.2809 114.524 46.5 118.577Z" fill="white"/>
<path d="M49.1053 73C69.0541 81.3847 112.006 98.3388 124.226 99.0771L125.5 96.0737C110.3 93.6709 68.5892 77.3417 49.6338 69.4774C49.4507 70.6495 49.2745 71.8241 49.1053 73Z" fill="white"/>
<path d="M49.6338 69.4774C68.5892 77.3417 110.3 93.6709 125.5 96.0737L127.652 91C116.886 89.8 71.7313 72.665 50.5 64.2475C50.1962 65.982 49.9072 67.7268 49.6338 69.4774Z" fill="black"/>
<path d="M50.5 64.2475C71.7313 72.665 116.886 89.8 127.652 91L130.834 83.5L98 74.5L96 78.0771L91.75 73L79 68.5771L76.5 72L73 66.5L51.6533 58.0771C51.248 60.114 50.8633 62.1733 50.5 64.2475Z" fill="white"/>
<path d="M132.499 79.577L133.688 78.0771L52.6998 53.0771C52.3372 54.7255 51.9882 56.3936 51.6533 58.0771L73 66.5L76.5 72L79 68.5771L91.75 73L96 78.0771L98 74.5L130.834 83.5L132.499 79.577Z" fill="#1E9479"/>
<path d="M47.2929 88.5L50.5 90L62.5 84.5L48.4198 78.0771C47.9789 81.5697 47.602 85.0558 47.2929 88.5Z" fill="white"/>
<path d="M60 92.5L73 98.5L85 92.5L73 88.5L60 92.5Z" fill="white"/>
<path d="M82.5 102L95 105.577L107 99.0771L95 96.0771L82.5 102Z" fill="white"/>
<path d="M104.5 108.577L118.107 113.5L123.198 101.5L104.5 108.577Z" fill="white"/>
<path d="M57.4934 35.0771L141.111 67.5771C140.805 66.0467 141.569 63.8223 143 61.2358L59.1819 30.1512C58.603 31.7366 58.0399 33.3811 57.4934 35.0771Z" fill="#1E9479"/>
<path d="M59.1819 30.1512L143 61.2358C143.811 59.7702 144.835 58.1883 146 56.5505L140 54.598L137.5 53.7845L130.5 51.5067L128 50.6932L121.26 48.5L118.5 47.6018L111.5 45.324L108.5 44.3477L99.0212 41.2633L96 40.2801L92.5 39.1412L90.75 38.5718L85.5 36.8634L82.8468 36L76 33.772L72.7351 32.7096L67 30.8433L64.8729 30.1512L59.7987 28.5C59.5912 29.0429 59.3855 29.5934 59.1819 30.1512Z" fill="black"/>
<path d="M85.5 16.5C74.7 9.7 66.499 15.577 63.4986 20.077C62.2078 22.6027 60.9725 25.4296 59.7987 28.5L64.8729 30.1512C67.0819 26.1008 72.7 19.5 77.5 25.5C82.3 31.5 84.8333 35.5756 85.5 36.8634L90.75 38.5718C90 35.0478 85.4 26.4154 73 20.077C71 18.5387 69.8333 21.0514 69.5 22.5C67.9576 20.1667 67.0983 16.2 76 19C84.9017 21.8 90.709 33.5942 92.5 39.1412L96 40.2801C96 40.0201 95.9 38.5 95.5 34.5C95.1 30.5 89.6667 26.1667 87 24.5L86.5 22.5C86.9 19.7 86 17.3333 85.5 16.5Z" fill="#1E9479"/>
<path fill-rule="evenodd" clip-rule="evenodd" d="M67 30.8433C68.5 27.9843 71.7 23.5 76.5 27.5C81.1581 31.3818 82.2816 34.4545 82.8009 35.8749C82.8167 35.9181 82.832 35.9598 82.8468 36L76 33.772C75.6667 33.4179 74.9 32.4677 74.5 31.5C74.1 30.5323 73.1568 31.9032 72.7351 32.7096L67 30.8433Z" fill="#1E9479"/>
<path d="M74.5 31.5C74.1 30.5323 73.1568 31.9032 72.7351 32.7096L76 33.772C75.6667 33.4179 74.9 32.4677 74.5 31.5Z" fill="white"/>
<path d="M67 30.8433C68.5 27.9843 71.7 23.5 76.5 27.5C81.1581 31.3818 82.2816 34.4545 82.8009 35.8749L82.8468 36L85.5 36.8634C84.8333 35.5756 82.3 31.5 77.5 25.5C72.7 19.5 67.0819 26.1008 64.8729 30.1512L67 30.8433Z" fill="white"/>
<path d="M69.5 22.5C69.8333 21.0514 71 18.5387 73 20.077C85.4 26.4154 90 35.0478 90.75 38.5718L92.5 39.1412C90.709 33.5942 84.9017 21.8 76 19C67.0983 16.2 67.9576 20.1667 69.5 22.5Z" fill="white"/>
<path fill-rule="evenodd" clip-rule="evenodd" d="M103.5 25.5C104.108 23.3584 105.779 21.8532 108 22C110.221 22.1468 111.892 24.1512 112 26.5C112.108 28.8488 109.686 31.8791 107 31.5C104.314 31.1209 102.892 27.6416 103.5 25.5ZM105.5 27C105.25 25.775 106.76 23.8371 108 24C109.24 24.1629 110 25.2497 110 26.5C110 27.7503 109.243 28.8619 108 29C106.757 29.1381 105.75 28.225 105.5 27Z" fill="white"/>
<path d="M98.5 21L98 24.5L101.5 24L101 20.077L98.5 21Z" fill="white"/>
<path d="M102.5 18.5V20.5H105.5L106 18L104 18.5V16L102.5 18.5Z" fill="white"/>
<path d="M99.0212 13.5L98 15.5L98.5 17.5H100V15H101.5L99.0212 13.5Z" fill="white"/>
<path d="M92.5 13.5V17.5771L96 17.5V13.5H92.5Z" fill="white"/>
<path fill-rule="evenodd" clip-rule="evenodd" d="M122.238 18.7032L118.5 26.5L115 25.5L114 27L117.587 28.1297L112.963 36.3824L104 33.5L102.5 36.5L111.349 39.2636L108.5 44.3477L111.5 45.324L114.063 40.1115L121.135 42.3201L118.5 47.6018L121.26 48.5L123.814 43.1567L130.776 45.3311L128 50.6932L130.5 51.5067L133.21 46.0915L140.459 48.3553L137.5 53.7845L140 54.598L142.949 49.1329L150 51.3352C150.655 50.5319 151.324 49.7302 152 48.9366L144.377 46.4851L148.951 38.0081L159 41.1732C159.516 40.6298 160.017 40.1073 160.5 39.6096L149.876 36.2934L153 30.5027L151 29.0133L147.446 35.5349L139.704 33.1184L144.268 24L142.5 22.6835L137.461 32.4182L130.051 30.1054L135 19.7493L132.499 19.5442L127.61 29.3434L120.457 27.1107L124.5 18.8886L122.238 18.7032ZM119.638 28.7757L115.496 37.1972L122.558 39.4682L126.772 31.0226L119.638 28.7757ZM129.241 31.8003L125.174 40.3096L132.205 42.5706L136.583 34.1129L129.241 31.8003ZM134.589 43.3373L138.849 34.8264L146.516 37.2412L141.91 45.6918L134.589 43.3373Z" fill="white"/>
<path fill-rule="evenodd" clip-rule="evenodd" d="M90 10.0771L89.5 21.5771C92.966 23.7228 99.6681 30.6409 99.0212 41.2633L108.5 44.3477L111.349 39.2636L102.5 36.5L104 33.5L112.963 36.3824L117.587 28.1297L114 27L115 25.5L118.5 26.5L122.238 18.7032L108.5 17.5771L104.5 10.0771H90ZM92.5 17.5771V13.5H96V17.5L92.5 17.5771ZM98 15.5L99.0212 13.5L101.5 15H100V17.5H98.5L98 15.5ZM98 24.5L98.5 21L101 20.077L101.5 24L98 24.5ZM102.5 20.5V18.5L104 16V18.5L106 18L105.5 20.5H102.5ZM108 22C105.779 21.8532 104.108 23.3584 103.5 25.5C102.892 27.6416 104.314 31.1209 107 31.5C109.686 31.8791 112.108 28.8488 112 26.5C111.892 24.1512 110.221 22.1468 108 22Z" fill="#1E9479"/>
<path d="M111.5 45.324L118.5 47.6018L121.135 42.3201L114.063 40.1115L111.5 45.324Z" fill="#1E9479"/>
<path d="M115.496 37.1972L119.638 28.7757L126.772 31.0226L122.558 39.4682L115.496 37.1972Z" fill="#1E9479"/>
<path d="M132.499 19.5442L124.5 18.8886L120.457 27.1107L127.61 29.3434L132.499 19.5442Z" fill="#1E9479"/>
<path d="M139 20.0771L135 19.7493L130.051 30.1054L137.461 32.4182L142.5 22.6835L139 20.0771Z" fill="#1E9479"/>
<path d="M125.174 40.3096L129.241 31.8003L136.583 34.1129L132.205 42.5706L125.174 40.3096Z" fill="#1E9479"/>
<path d="M121.26 48.5L128 50.6932L130.776 45.3311L123.814 43.1567L121.26 48.5Z" fill="#1E9479"/>
<path d="M151 29.0133L144.268 24L139.704 33.1184L147.446 35.5349L151 29.0133Z" fill="#1E9479"/>
<path d="M138.849 34.8264L134.589 43.3373L141.91 45.6918L146.516 37.2412L138.849 34.8264Z" fill="#1E9479"/>
<path d="M130.5 51.5067L137.5 53.7845L140.459 48.3553L133.21 46.0915L130.5 51.5067Z" fill="#1E9479"/>
<path d="M152 48.9366C154.367 46.157 156.814 43.4762 159 41.1732L148.951 38.0081L144.377 46.4851L152 48.9366Z" fill="#1E9479"/>
<path d="M160.5 39.6096C161.213 38.8742 161.884 38.1928 162.5 37.5771L153 30.5027L149.876 36.2934L160.5 39.6096Z" fill="#1E9479"/>
<path d="M140 54.598L146 56.5505C147.21 54.8498 148.57 53.0888 150 51.3352L142.949 49.1329L140 54.598Z" fill="#1E9479"/>
<defs>
<linearGradient id="paint0_linear_316_342" x1="122" y1="0" x2="122" y2="313.256" gradientUnits="userSpaceOnUse">
<stop stop-color="#13AC86"/>
<stop offset="1" stop-color="#128194"/>
</linearGradient>
<linearGradient id="paint1_linear_316_342" x1="122" y1="0" x2="122" y2="313.256" gradientUnits="userSpaceOnUse">
<stop stop-color="#157D96"/>
<stop offset="1" stop-color="#233E99"/>
</linearGradient>
<linearGradient id="paint2_linear_316_342" x1="122" y1="0" x2="122" y2="313.256" gradientUnits="userSpaceOnUse">
<stop stop-color="#157D96"/>
<stop offset="1" stop-color="#233E99"/>
</linearGradient>
<linearGradient id="paint3_linear_316_342" x1="122" y1="0" x2="122" y2="313.256" gradientUnits="userSpaceOnUse">
<stop stop-color="#157D96"/>
<stop offset="1" stop-color="#233E99"/>
</linearGradient>
<linearGradient id="paint4_linear_316_342" x1="122" y1="0" x2="122" y2="313.256" gradientUnits="userSpaceOnUse">
<stop stop-color="#157D96"/>
<stop offset="1" stop-color="#233E99"/>
</linearGradient>
<linearGradient id="paint5_linear_316_342" x1="122" y1="0" x2="122" y2="313.256" gradientUnits="userSpaceOnUse">
<stop stop-color="#157D96"/>
<stop offset="1" stop-color="#233E99"/>
</linearGradient>
<linearGradient id="paint6_linear_316_342" x1="122" y1="0" x2="122" y2="313.256" gradientUnits="userSpaceOnUse">
<stop stop-color="#157D96"/>
<stop offset="1" stop-color="#233E99"/>
</linearGradient>
<linearGradient id="paint7_linear_316_342" x1="122" y1="0" x2="122" y2="313.256" gradientUnits="userSpaceOnUse">
<stop stop-color="#157D96"/>
<stop offset="1" stop-color="#233E99"/>
</linearGradient>
<linearGradient id="paint8_linear_316_342" x1="122" y1="0" x2="122" y2="313.256" gradientUnits="userSpaceOnUse">
<stop stop-color="#157D96"/>
<stop offset="1" stop-color="#233E99"/>
</linearGradient>
<linearGradient id="paint9_linear_316_342" x1="122" y1="0" x2="122" y2="313.256" gradientUnits="userSpaceOnUse">
<stop stop-color="#157D96"/>
<stop offset="1" stop-color="#233E99"/>
</linearGradient>
<linearGradient id="paint10_linear_316_342" x1="122" y1="0" x2="122" y2="313.256" gradientUnits="userSpaceOnUse">
<stop stop-color="#157D96"/>
<stop offset="1" stop-color="#233E99"/>
</linearGradient>
<linearGradient id="paint11_linear_316_342" x1="122" y1="0" x2="122" y2="313.256" gradientUnits="userSpaceOnUse">
<stop stop-color="#149F92"/>
<stop offset="1" stop-color="#1D5E97"/>
</linearGradient>
</defs>
</svg>
